<?xml version="1.0" encoding="UTF-8"?>
<!--
  Lifebook 인생 나무 포스터 — A2 마스터 템플릿 (5-branch) v0.1
  챕터 5개: 유년기 / 학창기 / 청장년기 / 중년기 / 노년기
  샘플: 박명자 님 14개 사건
-->
<svg xmlns="http://www.w3.org/2000/svg" viewBox="0 0 420 594" width="420mm" height="594mm">
  <title>박명자 님의 인생 나무 — 5-branch 마스터 v0.1</title>
  <defs>
    <pattern id="hanji" x="0" y="0" width="22" height="22" patternUnits="userSpaceOnUse">
      <line x1="2" y1="3" x2="7" y2="4" stroke="#a89373" stroke-width="0.08"/>
      <line x1="9" y1="16" x2="15" y2="17" stroke="#a89373" stroke-width="0.08"/>
      <line x1="16" y1="8" x2="20" y2="10" stroke="#a89373" stroke-width="0.08"/>
      <circle cx="5" cy="10" r="0.25" fill="#a89373"/>
      <circle cx="13" cy="6" r="0.2" fill="#a89373"/>
      <circle cx="18" cy="15" r="0.25" fill="#a89373"/>
    </pattern>
    <symbol id="leaf-s" viewBox="0 0 7 5"><ellipse cx="3.5" cy="2.5" rx="3" ry="1.8" fill="currentColor"/></symbol>
    <symbol id="flower-s" viewBox="0 0 14 14">
      <circle cx="7" cy="7" r="2.8" fill="currentColor"/>
      <ellipse cx="7" cy="2.5" rx="1.6" ry="2.2" fill="currentColor" opacity="0.72"/>
      <ellipse cx="7" cy="11.5" rx="1.6" ry="2.2" fill="currentColor" opacity="0.72"/>
      <ellipse cx="2.5" cy="7" rx="2.2" ry="1.6" fill="currentColor" opacity="0.72"/>
      <ellipse cx="11.5" cy="7" rx="2.2" ry="1.6" fill="currentColor" opacity="0.72"/>
    </symbol>
    <symbol id="fruit-s" viewBox="0 0 12 14">
      <circle cx="6" cy="8" r="5" fill="currentColor"/>
      <path d="M 6 3 C 6 0.5 8.5 0 8.5 1.8" stroke="currentColor" stroke-width="0.9" fill="none" stroke-linecap="round"/>
      <ellipse cx="5" cy="3.5" rx="1.8" ry="1" fill="currentColor" opacity="0.6" transform="rotate(-20 5 3.5)"/>
    </symbol>
    <symbol id="bird-s" viewBox="0 0 14 9">
      <path d="M 1 5 C 3.5 2.5 5.5 1.5 7 2.8 C 8.5 1.5 10.5 2.5 13 5" stroke="currentColor" stroke-width="1.1" fill="none" stroke-linecap="round"/>
      <path d="M 7 2.8 L 7.2 6" stroke="currentColor" stroke-width="0.8" fill="none"/>
    </symbol>
    <style>
      .idx-line{font-family:'Pretendard','Noto Sans KR',sans-serif;font-size:3.5px;fill:#857C72}
      .chapter-lbl{font-family:'Noto Serif KR',serif;font-size:5px;font-weight:700;fill:#5C3820}
      .event-lbl{font-family:'Pretendard','Noto Sans KR',sans-serif;font-size:3.5px;fill:#2A2520}
      .year-lbl{font-family:'Pretendard','Noto Sans KR',sans-serif;font-size:3px;font-weight:700;fill:#5C3820}
    </style>
  </defs>

  <rect x="0" y="0" width="420" height="594" fill="#FAF7F0"/>
  <rect x="0" y="0" width="420" height="594" fill="url(#hanji)" opacity="0.55"/>

  <!-- 제목 -->
  <g text-anchor="middle">
    <text x="210" y="22" font-family="'Pretendard',sans-serif" font-size="3.53" font-weight="500" fill="#857C72" letter-spacing="2">L I F E B O O K</text>
    <text id="title-name" x="210" y="50" font-family="'Noto Serif KR',serif" font-size="19" font-weight="700" fill="#2A2520">박명자 님의 인생 나무</text>
    <text x="210" y="70" font-family="'Noto Serif KR',serif" font-size="9" fill="#5C534A" letter-spacing="1">큰 줄기</text>
    <line x1="178" y1="82" x2="200" y2="82" stroke="#C8923D" stroke-width="0.4"/>
    <circle cx="210" cy="82" r="1.4" fill="#C8923D"/>
    <line x1="220" y1="82" x2="242" y2="82" stroke="#C8923D" stroke-width="0.4"/>
  </g>

  <!-- 뿌리 -->
  <g fill="none">
    <path d="M 198 468 C 186 476 168 482 148 486" stroke="#5C3820" stroke-width="2.5" stroke-linecap="round"/>
    <path d="M 168 482 C 160 488 152 492 142 494" stroke="#5C3820" stroke-width="1.2" stroke-linecap="round"/>
    <path d="M 222 468 C 234 476 252 482 272 486" stroke="#5C3820" stroke-width="2.5" stroke-linecap="round"/>
    <path d="M 252 482 C 260 488 268 492 278 494" stroke="#5C3820" stroke-width="1.2" stroke-linecap="round"/>
    <path d="M 210 470 C 210 480 208 488 206 494" stroke="#5C3820" stroke-width="1.5" stroke-linecap="round"/>
  </g>
  <g id="root-text" text-anchor="middle">
    <text x="210" y="502" font-family="'Noto Serif KR',serif" font-size="4.5" fill="#5C3820" font-weight="500">충북 청주 · 1942</text>
    <text x="210" y="508" font-family="'Pretendard',sans-serif" font-size="3.2" fill="#857C72">아버지 박○○ · 어머니 김○○</text>
  </g>

  <!-- 줄기 -->
  <path d="M 196 468 C 193 400,193 330,200 215 L 220 215 C 227 330,227 400,224 468 Z" fill="#6B4226" opacity="0.88"/>
  <path d="M 203 440 C 203 380 204 320 206 235" stroke="#8B5E3C" stroke-width="0.4" fill="none" opacity="0.5"/>

  <!-- 가지 1: 유년기 (우, y≈450) -->
  <g id="branch-1">
    <path d="M 220 456 C 250 442,298 422,346 393 L 349 385 C 299 412,250 432,221 446 Z" fill="#7A5030" opacity="0.85"/>
    <!-- 잔가지 1-1: 1942 출생 -->
    <line x1="265" y1="433" x2="255" y2="413" stroke="#8B5E3C" stroke-width="1.2" stroke-linecap="round"/>
    <g id="slot-c1-e1" color="#6B8C5A">
      <use href="#leaf-s" x="246" y="402" width="8" height="6"/>
      <use href="#leaf-s" x="252" y="399" width="7" height="5" transform="rotate(20 256 402)"/>
      <use href="#leaf-s" x="250" y="406" width="6" height="4" transform="rotate(-15 253 408)"/>
    </g>
    <text id="label-c1-e1" class="year-lbl" x="256" y="398">1942</text>
    <text id="label-c1-e1-t" class="event-lbl" x="256" y="394">충북 청주 출생</text>
    <!-- 잔가지 1-2: 1949 피난 -->
    <line x1="314" y1="412" x2="304" y2="392" stroke="#8B5E3C" stroke-width="1.1" stroke-linecap="round"/>
    <g id="slot-c1-e2" color="#6B8C5A">
      <use href="#leaf-s" x="295" y="381" width="8" height="6"/>
      <use href="#leaf-s" x="301" y="378" width="7" height="5" transform="rotate(15 305 381)"/>
      <use href="#leaf-s" x="299" y="385" width="6" height="4" transform="rotate(-20 302 387)"/>
    </g>
    <text id="label-c1-e2" class="year-lbl" x="305" y="377">1949</text>
    <text id="label-c1-e2-t" class="event-lbl" x="305" y="373">한국전쟁 피난</text>
    <text id="chapter-1" class="chapter-lbl" x="356" y="393">유년기</text>
  </g>

  <!-- 가지 2: 학창기 (좌, y≈400) -->
  <g id="branch-2">
    <path d="M 199 396 C 170 390,120 372,70 352 L 68 360 C 118 380,168 398,199 408 Z" fill="#7A5030" opacity="0.82"/>
    <!-- 잔가지 2-1: 1956 입학 -->
    <line x1="161" y1="365" x2="168" y2="346" stroke="#8B5E3C" stroke-width="1.2" stroke-linecap="round"/>
    <g id="slot-c2-e1" color="#6B8C5A">
      <use href="#leaf-s" x="163" y="335" width="8" height="6"/>
      <use href="#leaf-s" x="169" y="332" width="7" height="5" transform="rotate(-15 173 335)"/>
      <use href="#leaf-s" x="167" y="339" width="6" height="4" transform="rotate(20 170 341)"/>
    </g>
    <text id="label-c2-e1" class="year-lbl" x="173" y="331">1956</text>
    <text id="label-c2-e1-t" class="event-lbl" x="173" y="327">청주국민학교 입학</text>
    <!-- 잔가지 2-2: 1962 고교 -->
    <line x1="109" y1="348" x2="116" y2="329" stroke="#8B5E3C" stroke-width="1.1" stroke-linecap="round"/>
    <g id="slot-c2-e2" color="#6B8C5A">
      <use href="#leaf-s" x="111" y="318" width="8" height="6"/>
      <use href="#leaf-s" x="117" y="315" width="7" height="5" transform="rotate(-20 121 318)"/>
      <use href="#leaf-s" x="115" y="322" width="6" height="4" transform="rotate(15 118 324)"/>
    </g>
    <text id="label-c2-e2" class="year-lbl" x="121" y="314">1962</text>
    <text id="label-c2-e2-t" class="event-lbl" x="121" y="310">청주고등학교 입학</text>
    <text id="chapter-2" class="chapter-lbl" x="55" y="325" text-anchor="end">학창기</text>
  </g>

  <!-- 가지 3: 청장년기 (우, y≈348) -->
  <g id="branch-3">
    <path d="M 220 344 C 252 333,298 313,350 291 L 353 284 C 299 305,252 325,220 354 Z" fill="#7A5030" opacity="0.79"/>
    <!-- 잔가지 3-1: 1968 첫 직장 -->
    <line x1="250" y1="330" x2="241" y2="310" stroke="#8B5E3C" stroke-width="1.1" stroke-linecap="round"/>
    <g id="slot-c3-e1" color="#6B8C5A">
      <use href="#leaf-s" x="232" y="299" width="8" height="6"/>
      <use href="#leaf-s" x="238" y="296" width="7" height="5" transform="rotate(-15 242 299)"/>
      <use href="#leaf-s" x="236" y="303" width="6" height="4" transform="rotate(20 239 305)"/>
    </g>
    <text id="label-c3-e1" class="year-lbl" x="242" y="295">1968</text>
    <text id="label-c3-e1-t" class="event-lbl" x="242" y="291">서울 상경, 첫 직장</text>
    <!-- 잔가지 3-2: 1972 결혼 (꽃) -->
    <line x1="276" y1="319" x2="267" y2="299" stroke="#8B5E3C" stroke-width="1.1" stroke-linecap="round"/>
    <g id="slot-c3-e2" color="#C8923D">
      <use href="#flower-s" x="258" y="284" width="14" height="14"/>
    </g>
    <text id="label-c3-e2" class="year-lbl" x="274" y="282">1972</text>
    <text id="label-c3-e2-t" class="event-lbl" x="274" y="278">결혼</text>
    <!-- 잔가지 3-3: 1974 큰딸 (꽃) -->
    <line x1="304" y1="308" x2="295" y2="288" stroke="#8B5E3C" stroke-width="1.0" stroke-linecap="round"/>
    <g id="slot-c3-e3" color="#C8923D">
      <use href="#flower-s" x="286" y="273" width="14" height="14"/>
    </g>
    <text id="label-c3-e3" class="year-lbl" x="302" y="271">1974</text>
    <text id="label-c3-e3-t" class="event-lbl" x="302" y="267">큰딸 출생</text>
    <!-- 잔가지 3-4: 1977 아들 (꽃) -->
    <line x1="332" y1="297" x2="323" y2="277" stroke="#8B5E3C" stroke-width="0.9" stroke-linecap="round"/>
    <g id="slot-c3-e4" color="#C8923D">
      <use href="#flower-s" x="314" y="262" width="14" height="14"/>
    </g>
    <text id="label-c3-e4" class="year-lbl" x="330" y="260">1977</text>
    <text id="label-c3-e4-t" class="event-lbl" x="330" y="256">작은아들 출생</text>
    <text id="chapter-3" class="chapter-lbl" x="358" y="293">청장년기</text>
  </g>

  <!-- 가지 4: 중년기 (좌, y≈296) -->
  <g id="branch-4">
    <path d="M 199 290 C 168 283,118 268,64 252 L 62 260 C 115 276,166 291,199 302 Z" fill="#7A5030" opacity="0.75"/>
    <!-- 잔가지 4-1: 1985 자영업 -->
    <line x1="170" y1="266" x2="177" y2="247" stroke="#8B5E3C" stroke-width="1.1" stroke-linecap="round"/>
    <g id="slot-c4-e1" color="#6B8C5A">
      <use href="#leaf-s" x="172" y="236" width="8" height="6"/>
      <use href="#leaf-s" x="178" y="233" width="7" height="5" transform="rotate(-15 182 236)"/>
      <use href="#leaf-s" x="176" y="240" width="6" height="4" transform="rotate(20 179 242)"/>
    </g>
    <text id="label-c4-e1" class="year-lbl" x="182" y="232">1985</text>
    <text id="label-c4-e1-t" class="event-lbl" x="182" y="228">자영업 시작</text>
    <!-- 잔가지 4-2: 1995 큰딸 결혼 -->
    <line x1="129" y1="253" x2="136" y2="234" stroke="#8B5E3C" stroke-width="1.0" stroke-linecap="round"/>
    <g id="slot-c4-e2" color="#6B8C5A">
      <use href="#leaf-s" x="131" y="223" width="8" height="6"/>
      <use href="#leaf-s" x="137" y="220" width="7" height="5" transform="rotate(-20 141 223)"/>
      <use href="#leaf-s" x="135" y="227" width="6" height="4" transform="rotate(15 138 229)"/>
    </g>
    <text id="label-c4-e2" class="year-lbl" x="141" y="219">1995</text>
    <text id="label-c4-e2-t" class="event-lbl" x="141" y="215">큰딸 결혼</text>
    <!-- 잔가지 4-3: 2003 손주 (열매) -->
    <line x1="92" y1="241" x2="99" y2="222" stroke="#8B5E3C" stroke-width="0.9" stroke-linecap="round"/>
    <g id="slot-c4-e3" color="#C8603D">
      <use href="#fruit-s" x="91" y="207" width="12" height="14"/>
    </g>
    <text id="label-c4-e3" class="year-lbl" x="106" y="213">2003</text>
    <text id="label-c4-e3-t" class="event-lbl" x="106" y="209">첫 손주</text>
    <text id="chapter-4" class="chapter-lbl" x="50" y="223" text-anchor="end">중년기</text>
  </g>

  <!-- 가지 5: 노년기 (우, y≈246) -->
  <g id="branch-5">
    <path d="M 220 241 C 250 230,296 210,347 188 L 350 181 C 297 202,250 222,220 251 Z" fill="#7A5030" opacity="0.71"/>
    <!-- 잔가지 5-1: 2008 은퇴 -->
    <line x1="259" y1="224" x2="250" y2="204" stroke="#8B5E3C" stroke-width="1.1" stroke-linecap="round"/>
    <g id="slot-c5-e1" color="#6B8C5A">
      <use href="#leaf-s" x="241" y="193" width="8" height="6"/>
      <use href="#leaf-s" x="247" y="190" width="7" height="5" transform="rotate(-15 251 193)"/>
      <use href="#leaf-s" x="245" y="197" width="6" height="4" transform="rotate(20 248 199)"/>
    </g>
    <text id="label-c5-e1" class="year-lbl" x="251" y="189">2008</text>
    <text id="label-c5-e1-t" class="event-lbl" x="251" y="185">은퇴</text>
    <!-- 잔가지 5-2: 2015 여행 -->
    <line x1="293" y1="210" x2="284" y2="190" stroke="#8B5E3C" stroke-width="1.0" stroke-linecap="round"/>
    <g id="slot-c5-e2" color="#6B8C5A">
      <use href="#leaf-s" x="275" y="179" width="8" height="6"/>
      <use href="#leaf-s" x="281" y="176" width="7" height="5" transform="rotate(-20 285 179)"/>
      <use href="#leaf-s" x="279" y="183" width="6" height="4" transform="rotate(15 282 185)"/>
    </g>
    <text id="label-c5-e2" class="year-lbl" x="285" y="175">2015</text>
    <text id="label-c5-e2-t" class="event-lbl" x="285" y="171">부부 일본 여행</text>
    <!-- 잔가지 5-3: 2023 팔순 (꽃) -->
    <line x1="327" y1="197" x2="318" y2="177" stroke="#8B5E3C" stroke-width="0.9" stroke-linecap="round"/>
    <g id="slot-c5-e3" color="#C8923D">
      <use href="#flower-s" x="309" y="162" width="14" height="14"/>
    </g>
    <text id="label-c5-e3" class="year-lbl" x="325" y="161">2023</text>
    <text id="label-c5-e3-t" class="event-lbl" x="325" y="157">팔순 잔치</text>
    <text id="chapter-5" class="chapter-lbl" x="356" y="188">노년기</text>
  </g>

  <!-- 수관 배경 -->
  <g fill="#6B8C5A" opacity="0.14">
    <ellipse cx="195" cy="178" rx="50" ry="38"/>
    <ellipse cx="310" cy="175" rx="44" ry="32"/>
    <ellipse cx="140" cy="215" rx="40" ry="28"/>
    <ellipse cx="260" cy="158" rx="38" ry="26"/>
    <ellipse cx="170" cy="200" rx="32" ry="22"/>
    <ellipse cx="100" cy="240" rx="36" ry="24"/>
    <ellipse cx="300" cy="245" rx="34" ry="22"/>
  </g>

  <!-- 범례 -->
  <g transform="translate(20, 412)">
    <text font-family="'Pretendard',sans-serif" font-size="3.5" font-weight="500" fill="#5C534A" y="0">범례</text>
    <g transform="translate(0,6)"><use href="#leaf-s" x="0" y="0" width="8" height="6" color="#6B8C5A"/><text class="event-lbl" x="10" y="5">일반 사건</text></g>
    <g transform="translate(0,15)"><use href="#flower-s" x="0" y="0" width="10" height="10" color="#C8923D"/><text class="event-lbl" x="12" y="7">기쁜·중요 사건</text></g>
    <g transform="translate(0,27)"><use href="#fruit-s" x="0" y="0" width="9" height="10" color="#C8603D"/><text class="event-lbl" x="12" y="7">결실 (자녀·손주·은퇴)</text></g>
  </g>

  <!-- 푸터 -->
  <g>
    <line x1="80" y1="518" x2="340" y2="518" stroke="#5C534A" stroke-width="0.2" opacity="0.4"/>
    <line x1="195" y1="518" x2="225" y2="518" stroke="#C8923D" stroke-width="0.4"/>
    <text id="footer-credit" x="210" y="529" font-family="'Noto Serif KR',serif" font-size="5" fill="#5C534A" text-anchor="middle">박명자 · 2026년 봄 제작</text>
    <text id="index-header" x="20" y="541" font-family="'Pretendard',sans-serif" font-size="3.5" font-weight="500" fill="#5C534A">전체 사건 색인  ·  14건</text>
    <text x="20" y="549" class="idx-line">유년기 — 1942 충북 청주 출생  ·  1949 한국전쟁 피난</text>
    <text x="20" y="557" class="idx-line">학창기 — 1956 청주국민학교 입학  ·  1962 청주고등학교 입학</text>
    <text x="20" y="565" class="idx-line">청장년기 — 1968 서울 상경·첫 직장  ·  1972 결혼  ·  1974 큰딸 출생  ·  1977 작은아들 출생</text>
    <text x="20" y="573" class="idx-line">중년기 — 1985 자영업 시작  ·  1995 큰딸 결혼  ·  2003 첫 손주   노년기 — 2008 은퇴  ·  2015 부부 일본 여행  ·  2023 팔순 잔치</text>
    <line x1="80" y1="581" x2="340" y2="581" stroke="#5C534A" stroke-width="0.15" opacity="0.3"/>
    <text x="210" y="589" font-family="'Pretendard',sans-serif" font-size="3.53" font-weight="500" fill="#857C72" text-anchor="middle" letter-spacing="1.5">L I F E B O O K  ·  라이프북</text>
    <text id="dev-note" x="20" y="592" font-family="'Pretendard',sans-serif" font-size="2.5" fill="#C8923D" opacity="0.7">[템플릿 v0.1 — 5-branch / 슬롯 ID: slot-cN-eM / 인쇄 출력 전 본 라인 제거]</text>
  </g>
  <g stroke="#C8923D" stroke-width="0.1" stroke-dasharray="1,1" fill="none" opacity="0.2">
    <rect x="10" y="10" width="400" height="574"/>
  </g>
</svg>
